HIERARCHY
ROOT Hips
{
	OFFSET -0.179506 -22.333345 2.821913
	CHANNELS 6 Xposition Yposition Zposition Zrotation Yrotation Xrotation 
	JOINT LeftUpLeg
	{
		OFFSET 6.951974 -9.140623 -0.681533
		CHANNELS 3 Zrotation Yrotation Xrotation
		JOINT LeftLeg
		{
			OFFSET 3.427654 -37.519855 -0.449580
			CHANNELS 3 Zrotation Yrotation Xrotation
			JOINT LeftFoot
			{
				OFFSET -1.359570 -39.796059 -4.369333
				CHANNELS 3 Zrotation Yrotation Xrotation
				JOINT LeftToe
				{
					OFFSET 2.635814 -5.579078 11.928840
					CHANNELS 3 Zrotation Yrotation Xrotation
					End Site
					{
						OFFSET 0.000000 0.000000 0.000000
					}
				}
			}
		}
	}
	JOINT RightUpLeg
	{
		OFFSET -6.767048 -9.052170 -0.431982
		CHANNELS 3 Zrotation Yrotation Xrotation
		JOINT RightLeg
		{
			OFFSET -3.829005 -38.256897 -0.885003
			CHANNELS 3 Zrotation Yrotation Xrotation
			JOINT RightFoot
			{
				OFFSET 1.577377 -39.841461 -4.231180
				CHANNELS 3 Zrotation Yrotation Xrotation
				JOINT RightToe
				{
					OFFSET -2.537174 -4.814398 12.334795
					CHANNELS 3 Zrotation Yrotation Xrotation
					End Site
					{
						OFFSET 0.000000 0.000000 0.000000
					}
				}
			}
		}
	}
	JOINT Spine
	{
		OFFSET -0.253288 10.896323 -2.669631
		CHANNELS 3 Zrotation Yrotation Xrotation
		JOINT Spine1
		{
			OFFSET 0.548704 13.518043 0.109247
			CHANNELS 3 Zrotation Yrotation Xrotation
			JOINT Spine2
			{
				OFFSET 0.145701 5.292222 2.542457
				CHANNELS 3 Zrotation Yrotation Xrotation
				JOINT Neck
				{
					OFFSET -0.277840 21.387037 -4.285703
					CHANNELS 3 Zrotation Yrotation Xrotation
					JOINT Head
					{
						OFFSET 0.515184 6.496960 5.134897
						CHANNELS 3 Zrotation Yrotation Xrotation
						End Site
						{
							OFFSET 0.000000 0.000000 0.000000
						}
					}
				}
				JOINT LeftShoulder
				{
					OFFSET 7.884473 12.174932 -3.408961
					CHANNELS 3 Zrotation Yrotation Xrotation
					JOINT LeftArm
					{
						OFFSET 9.097692 3.046888 -0.886815
						CHANNELS 3 Zrotation Yrotation Xrotation
						JOINT LeftForeArm
						{
							OFFSET 25.961220 -1.277207 -2.745643
							CHANNELS 3 Zrotation Yrotation Xrotation
							JOINT LeftHand
							{
								OFFSET 24.923361 0.898606 -0.117091
								CHANNELS 3 Zrotation Yrotation Xrotation
								End Site
								{
									OFFSET 0.000000 0.000000 0.000000
								}
							}
						}
					}
				}
				JOINT RightShoulder
				{
					OFFSET -8.175920 11.883285 -3.861528
					CHANNELS 3 Zrotation Yrotation Xrotation
					JOINT RightArm
					{
						OFFSET -9.601238 3.255117 -0.914307
						CHANNELS 3 Zrotation Yrotation Xrotation
						JOINT RightForeArm
						{
							OFFSET -25.374195 -1.332924 -2.140099
							CHANNELS 3 Zrotation Yrotation Xrotation
							JOINT RightHand
							{
								OFFSET -25.529810 0.777228 -0.555919
								CHANNELS 3 Zrotation Yrotation Xrotation
								End Site
								{
									OFFSET 0.000000 0.000000 0.000000
								}
							}
						}
					}
				}
			}
		}
	}
}
MOTION
Frames: 13
Frame Time: 0.033333
18.819973 54.504566 98.091583 -107.491344 1.032957 80.713377 13.453387 8.289979 0.146145 -7.439018 -6.823473 19.484952 -10.808226 -0.314464 -3.118525 nan nan nan -17.564045 -14.961973 2.145491 2.233421 -6.265075 12.380074 18.072778 -6.437498 17.030030 nan nan nan 0.789526 1.998025 17.483698 0.528194 -4.978088 -0.663896 0.266634 -0.928310 -3.159881 -8.201329 -14.133955 5.418863 6.023319 -12.790101 7.525043 4.561626 -11.670867 -12.211302 -16.851566 -28.866039 -8.376179 28.768365 -68.307915 -15.008775 -9.003563 -23.020578 -10.417966 -2.105261 5.550421 -17.390182 11.323819 1.611238 -25.480077 -59.955364 25.446657 -69.533996 6.245579 2.480187 -0.497781 
18.986008 55.048977 98.531059 -109.092966 1.277898 80.420974 12.364677 7.748299 0.744035 -8.006565 -6.961352 18.577502 -11.359424 -0.324001 -3.178688 nan nan nan -17.349340 -14.514336 1.982103 2.555277 -5.192702 11.713924 18.661452 -5.324923 19.315356 nan nan nan 2.178349 2.016415 17.740892 -0.647199 -3.343154 -0.532559 -0.238093 -0.087911 -3.037867 -8.449634 -15.070566 5.433332 6.170881 -12.833025 8.074291 5.075126 -12.329321 -12.351490 -18.019801 -29.914891 -6.833349 32.105244 -68.743531 -18.069097 -8.994504 -24.122629 -10.920773 -4.137120 7.870004 -15.991137 9.223712 1.827494 -25.871081 -47.933960 24.000798 -61.754478 5.374742 2.193890 -1.475711 
19.196228 55.611927 98.894859 -110.661029 1.457945 80.439866 11.309324 7.011992 0.951939 -8.636202 -6.706383 17.648240 -11.406950 -0.075627 -3.257633 nan nan nan -17.156219 -14.075169 1.477579 3.028349 -3.703852 11.036787 19.133938 -4.140981 21.392314 nan nan nan 3.274967 2.103571 17.711545 -1.724216 -1.866995 -0.523961 -0.580118 0.545050 -2.767468 -8.557046 -16.327569 5.484746 6.610752 -12.568228 8.410321 6.054730 -12.554066 -12.392148 -19.724126 -30.772294 -5.129788 36.909709 -69.125671 -22.330910 -9.317096 -24.711056 -11.289976 -6.800266 9.508148 -14.405750 8.797327 2.068062 -24.989686 -36.840110 22.876208 -53.666935 9.135254 1.905729 -3.183189 
19.451502 56.233421 99.176270 -112.237085 1.707635 80.715298 10.490302 6.113756 0.875076 -9.168125 -5.847083 16.704542 -11.304038 0.525199 -3.163573 nan nan nan -16.812402 -13.514987 0.689924 3.585805 -2.030630 10.420191 19.384467 -3.082707 22.793668 nan nan nan 4.049892 2.226499 17.464238 -2.516367 -0.503899 -0.639648 -0.773276 1.140669 -2.369423 -8.347502 -17.499126 5.378038 7.160334 -12.649721 8.739154 7.225871 -12.264788 -12.315090 -21.494898 -31.638847 -3.522496 41.820721 -69.709709 -26.625315 -9.045282 -25.199887 -11.697931 -9.166813 10.678008 -12.518752 9.005005 2.530592 -22.562172 -27.134016 23.400411 -44.121710 12.974490 2.277287 -3.005414 
19.714294 56.912868 99.413261 -113.674991 2.065195 81.073612 9.961475 5.197393 0.766917 -9.637553 -4.886613 15.665954 -11.230507 1.505131 -2.797582 nan nan nan -16.274977 -12.686795 -0.059708 3.962720 -0.461506 9.776168 19.623097 -2.441121 23.554184 nan nan nan 4.519468 2.310384 17.001962 -2.941024 0.647607 -0.596836 -0.757804 1.717705 -2.085110 -8.080889 -18.329858 5.386951 7.690765 -12.899051 8.773770 8.233859 -11.851501 -12.147531 -23.041624 -32.094602 -2.151085 47.106339 -70.742035 -31.031592 -8.763688 -25.247560 -12.768735 -11.112791 11.706807 -10.983554 9.670489 3.546647 -18.877440 -19.491200 26.142474 -31.909609 15.713544 1.677858 -1.926778 
19.968740 57.645737 99.618378 -114.792640 2.474507 81.467216 9.578245 4.500187 0.562831 -9.882948 -3.883545 14.736387 -11.493042 2.381486 -2.029058 nan nan nan -15.633767 -11.784802 -0.719025 4.073423 0.723824 9.174133 19.761107 -1.980308 23.692161 nan nan nan 4.728567 2.330298 16.261696 -3.084893 1.468669 -0.121264 -0.548181 2.134301 -2.235692 -8.037674 -19.107002 5.820198 8.156729 -12.765430 8.611881 8.910677 -11.369342 -11.840769 -24.292053 -32.277914 -1.090350 52.236648 -71.950772 -35.360326 -8.936673 -25.560781 -13.386714 -12.533355 12.746280 -9.860838 10.049473 4.727008 -14.792303 -11.922202 30.917847 -18.730696 19.229933 3.090214 -1.972661 
20.206949 58.411163 99.784554 -115.537917 2.912583 81.744089 9.317833 3.828613 0.507320 -10.069273 -2.837405 13.817845 -11.947177 3.326736 -1.070298 nan nan nan -15.021279 -10.784422 -1.141246 4.005367 1.136588 8.545982 19.342452 -1.723888 23.184778 nan nan nan 4.699762 2.287167 15.500596 -3.032554 1.915499 0.463808 -0.182108 2.294479 -2.497558 -7.753683 -19.548810 6.418643 8.295385 -12.669615 8.378053 9.520533 -10.756255 -11.608310 -25.469278 -32.254188 -0.029342 57.283293 -73.017847 -38.854861 -8.561188 -26.083254 -15.037611 -14.031198 13.813196 -9.435305 11.140624 7.834792 -11.076623 -5.144962 34.087432 -4.871368 22.371857 3.962258 -3.952636 
20.399412 59.209846 99.903244 -115.838497 3.362287 81.858280 9.092591 3.184795 0.640982 -10.077053 -1.899222 12.946716 -12.261275 4.279323 0.018715 nan nan nan -14.487050 -9.805535 -1.277509 3.724413 0.678690 8.015716 18.612860 -2.099508 22.615358 nan nan nan 4.600343 2.084706 14.796537 -2.911205 2.176838 1.193880 0.206219 2.063185 -2.908972 -7.448411 -19.927547 7.323231 8.311532 -12.510856 7.870558 9.874318 -10.026425 -11.057239 -26.087603 -32.211807 0.625182 62.603464 -73.912498 -42.416763 -7.733109 -26.593205 -17.969744 -15.625240 14.956647 -8.736916 12.890686 11.626351 -6.471921 1.255863 36.706171 7.455328 22.218189 5.312906 -11.155893 
20.541121 60.051311 99.977737 -115.725645 3.776075 81.828241 8.867379 2.999299 0.891663 -9.827795 -1.054432 12.307547 -12.428467 4.604050 1.628730 nan nan nan -14.060086 -9.289950 -1.166272 3.205921 -0.670273 7.652473 17.512325 -2.680527 22.161863 nan nan nan 4.443792 1.810773 14.351619 -2.836900 2.153560 1.624237 0.634565 1.664174 -3.331922 -7.103520 -20.410944 8.254288 8.217253 -12.200307 7.619555 10.480500 -9.318880 -10.411393 -26.992175 -32.098696 0.693524 67.039136 -74.674649 -45.237802 -7.467011 -27.640630 -20.513222 -17.763930 16.436900 -8.820207 17.314044 16.619504 -2.947966 3.992263 35.799057 14.711468 23.609812 7.911816 -15.315655 
20.672178 60.929794 99.989517 -115.416585 4.095799 81.787969 8.612584 3.041251 1.154266 -9.560569 -0.557441 11.803116 -12.235832 4.677082 3.572496 nan nan nan -13.806514 -9.278011 -1.042910 2.702542 -2.365310 7.434361 15.553644 -3.342337 21.561419 nan nan nan 4.218099 1.548954 14.038399 -2.750890 1.906014 1.812083 0.963772 1.352621 -3.816243 -6.989089 -20.951237 9.132986 8.220569 -11.923605 7.861664 11.233087 -9.122526 -10.032202 -27.744362 -31.429778 0.632199 71.222449 -75.529952 -48.667877 -7.506768 -28.251571 -22.036786 -19.879817 18.426865 -9.825785 23.786114 21.131716 0.404750 3.715357 33.556048 17.385974 27.490336 9.134326 -16.076337 
20.771257 61.834801 99.920616 -115.100595 4.356519 81.704674 8.364296 3.402823 1.501807 -9.235344 -0.287087 11.489762 -11.578261 4.360174 4.876430 nan nan nan -13.708003 -9.697639 -0.816721 2.294103 -3.912482 7.334065 13.461938 -3.936225 20.882104 nan nan nan 4.086412 1.350168 13.694431 -2.772638 1.620888 2.190387 1.134630 1.245911 -4.496936 -7.203796 -21.750465 9.993146 8.386560 -11.764098 8.578861 11.956052 -9.625966 -9.725128 -27.783565 -30.318980 0.434812 75.978761 -76.577871 -53.878108 -7.459363 -28.216821 -22.251143 -21.420450 21.128309 -10.538965 29.742246 23.086272 3.615598 2.911557 32.863377 15.671648 28.859665 9.329965 -14.309569 
20.836857 62.744881 99.759201 -114.719466 4.739347 81.687713 8.239092 4.088556 1.767276 -8.893453 -0.148489 11.589913 -10.972199 3.922829 4.579780 nan nan nan -13.587028 -10.566548 -0.612907 2.005018 -5.082800 7.440674 11.465767 -4.565615 19.992076 nan nan nan 4.033640 1.233493 13.066616 -2.510493 1.142105 3.038549 1.163538 1.459931 -5.301186 -7.410277 -22.228886 10.505846 8.569430 -12.377944 9.515632 12.397004 -10.483565 -9.551540 -27.358098 -29.154539 -0.191823 81.999789 -77.924085 -60.240589 -7.572932 -27.841367 -22.498323 -20.642527 24.026165 -10.196868 33.233058 23.829841 4.593489 2.401087 34.828400 14.432050 30.131041 7.001795 -12.392648 
20.891972 63.641922 99.535156 -114.155508 5.187985 81.850836 8.093816 4.655538 1.695066 -7.742298 1.411124 11.933441 -9.381751 5.284687 3.065177 nan nan nan -13.492206 -11.434866 -0.421530 1.804660 -6.479529 7.385918 9.857174 -5.415910 19.435199 nan nan nan 3.859820 1.123540 12.279374 -2.138420 0.620954 3.560151 1.260027 1.884132 -5.724064 -7.467091 -22.851827 10.899829 8.836167 -13.049764 10.431391 12.887098 -11.106023 -9.274242 -27.255513 -28.849279 -0.967957 87.577276 -79.201339 -65.863320 -7.702382 -27.603609 -22.983956 -18.921206 26.171682 -9.222054 36.414952 24.867645 4.782553 1.658390 36.622804 13.712082 30.769563 5.599664 -9.360675 
